<?xml version="1.0" encoding="utf-8"?>
<!-- Generator: Adobe Illustrator 15.1.0, SVG Export Plug-In . SVG Version: 6.00 Build 0)  -->
<!DOCTYPE svg PUBLIC "-//W3C//DTD SVG 1.1//EN" "http://www.w3.org/Graphics/SVG/1.1/DTD/svg11.dtd">
<svg version="1.1" id="Layer_1" xmlns="http://www.w3.org/2000/svg" xmlns:xlink="http://www.w3.org/1999/xlink" x="0px" y="0px"
	 width="100px" height="100px" viewBox="0 0 100 100" enable-background="new 0 0 100 100" xml:space="preserve">
<path fill="#FFFFFF" d="M2.699,65.896c-0.594-1.466-1.073-2.985-1.472-4.543h98.739c0,1.555-0.157,3.063-0.41,4.543H2.699z
	 M18.796,20.474c5.21-2.888,11.197-4.541,17.576-4.541c6.374,0,12.347,1.657,17.552,4.541H18.796z M0.35,47.729
	c0.193-1.55,0.494-3.061,0.878-4.541h91.757c1.253,1.391,2.359,2.908,3.305,4.541H0.35z M2.699,38.645
	c0.639-1.575,1.394-3.087,2.236-4.542h62.877c0.091,0.153,0.19,0.306,0.279,0.466c1.508-0.26,3.041-0.466,4.618-0.466
	c5.567,0,10.742,1.674,15.053,4.542H2.699z M8.031,29.56c1.318-1.644,2.783-3.154,4.361-4.543H60.37
	c1.565,1.384,3.013,2.906,4.321,4.543H8.031z M99.552,56.81H0.35c-0.187-1.49-0.316-2.996-0.316-4.538h98.348
	C98.896,53.73,99.293,55.248,99.552,56.81z M98.381,70.438c-0.559,1.588-1.26,3.105-2.092,4.543H8.031
	c-1.147-1.429-2.174-2.95-3.095-4.543H98.381z M12.392,79.524h80.59c-1.544,1.721-3.287,3.258-5.222,4.542H18.796
	C16.488,82.789,14.357,81.25,12.392,79.524z"/>
</svg>
