<?xml version="1.0" encoding="utf-8"?>
<!-- Generator: Adobe Illustrator 15.1.0, SVG Export Plug-In . SVG Version: 6.00 Build 0)  -->
<!DOCTYPE svg PUBLIC "-//W3C//DTD SVG 1.1//EN" "http://www.w3.org/Graphics/SVG/1.1/DTD/svg11.dtd">
<svg version="1.1" id="Layer_1" xmlns="http://www.w3.org/2000/svg" xmlns:xlink="http://www.w3.org/1999/xlink" x="0px" y="0px"
	 width="100px" height="100px" viewBox="0 0 100 100" enable-background="new 0 0 100 100" xml:space="preserve">
<path fill="#FFFFFF" d="M36.774,85.271C17.295,85.271,1.503,69.48,1.503,50s15.792-35.271,35.271-35.271
	c13.237,0,24.755,7.303,30.789,18.085c1.464-0.25,2.949-0.452,4.482-0.452c14.61,0,26.452,11.846,26.452,26.456
	c0,14.606-11.842,26.452-26.452,26.452C65.926,85.271,43.825,85.271,36.774,85.271z M72.045,76.452
	c9.74,0,17.638-7.897,17.638-17.634c0-9.74-7.897-17.637-17.638-17.637c-3.529,0-6.795,1.062-9.555,2.846
	c-2.713-11.719-13.168-20.481-25.716-20.481C22.166,23.546,10.322,35.39,10.322,50s11.844,26.452,26.452,26.452
	C44.749,76.452,65.388,76.452,72.045,76.452z"/>
</svg>
