<?xml version="1.0" encoding="utf-8"?>
<!-- Generator: Adobe Illustrator 15.1.0, SVG Export Plug-In . SVG Version: 6.00 Build 0)  -->
<!DOCTYPE svg PUBLIC "-//W3C//DTD SVG 1.1//EN" "http://www.w3.org/Graphics/SVG/1.1/DTD/svg11.dtd">
<svg version="1.1" id="Layer_1" xmlns="http://www.w3.org/2000/svg" xmlns:xlink="http://www.w3.org/1999/xlink" x="0px" y="0px"
	 width="100px" height="100px" viewBox="0 0 100 100" enable-background="new 0 0 100 100" xml:space="preserve">
<path fill="#FFFFFF" d="M81.023,70.613v-9.708c5.288-3.07,8.859-8.777,8.859-15.335c0-9.792-7.934-17.729-17.725-17.729
	c-3.551,0-6.833,1.065-9.604,2.861c-2.731-11.781-13.237-20.587-25.85-20.587c-14.686,0-26.588,11.904-26.588,26.59
	c0,7.865,3.433,14.912,8.86,19.781v10.89C8.391,61.24,1.252,49.821,1.252,36.705c0-19.581,15.872-35.453,35.453-35.453
	c13.306,0,24.884,7.339,30.947,18.178c1.472-0.25,2.961-0.454,4.506-0.454c14.687,0,26.589,11.907,26.589,26.594
	C98.747,57.14,91.341,66.961,81.023,70.613z M32.273,45.57c2.446,0,4.432,1.984,4.432,4.432v8.861c0,2.449-1.986,4.432-4.432,4.432
	c-2.449,0-4.432-1.982-4.432-4.432v-8.861C27.841,47.553,29.824,45.57,32.273,45.57z M32.273,72.158
	c2.446,0,4.432,1.984,4.432,4.433v8.859c0,2.45-1.986,4.433-4.432,4.433c-2.449,0-4.432-1.982-4.432-4.433v-8.859
	C27.841,74.141,29.824,72.158,32.273,72.158z M49.997,54.43c2.448,0,4.433,1.987,4.433,4.434v8.863c0,2.447-1.984,4.432-4.433,4.432
	c-2.447,0-4.428-1.984-4.428-4.432v-8.863C45.569,56.417,47.553,54.43,49.997,54.43z M49.997,81.022
	c2.448,0,4.433,1.984,4.433,4.428v8.865c0,2.449-1.984,4.432-4.433,4.432c-2.447,0-4.428-1.982-4.428-4.432V85.45
	C45.569,83.005,47.553,81.022,49.997,81.022z M67.727,45.57c2.445,0,4.432,1.984,4.432,4.432v8.861c0,2.449-1.986,4.432-4.432,4.432
	c-2.449,0-4.432-1.982-4.432-4.432v-8.861C63.295,47.553,65.277,45.57,67.727,45.57z M67.727,72.158
	c2.445,0,4.432,1.984,4.432,4.433v8.859c0,2.45-1.986,4.433-4.432,4.433c-2.449,0-4.432-1.982-4.432-4.433v-8.859
	C63.295,74.141,65.277,72.158,67.727,72.158z"/>
</svg>
