<?xml version="1.0" encoding="utf-8"?>
<!-- Generator: Adobe Illustrator 15.1.0, SVG Export Plug-In . SVG Version: 6.00 Build 0)  -->
<!DOCTYPE svg PUBLIC "-//W3C//DTD SVG 1.1//EN" "http://www.w3.org/Graphics/SVG/1.1/DTD/svg11.dtd">
<svg version="1.1" id="Layer_1" xmlns="http://www.w3.org/2000/svg" xmlns:xlink="http://www.w3.org/1999/xlink" x="0px" y="0px"
	 width="100px" height="100px" viewBox="0 0 100 100" enable-background="new 0 0 100 100" xml:space="preserve">
<path fill="#FFFFFF" d="M72.781,72.786c-0.64,0-1.481,0-2.42,0l8.168-10.054c7.249-2.407,12.479-9.234,12.479-17.29
	c0-10.066-8.158-18.224-18.225-18.224c-3.651,0-7.027,1.094-9.876,2.939C60.104,18.045,49.297,8.99,36.33,8.99
	C21.231,8.99,8.99,21.23,8.99,36.333c0,12.41,8.277,22.874,19.605,26.213l-3.074,8.607C10.665,66.546-0.125,52.701-0.125,36.331
	c0-20.131,16.322-36.456,36.454-36.456c13.68,0,25.585,7.547,31.821,18.694c1.513-0.26,3.049-0.467,4.634-0.467
	c15.1,0,27.34,12.239,27.34,27.34C100.124,60.542,87.882,72.786,72.781,72.786z M45.441,40.885h22.781L54.554,63.671h15.948
	l-29.617,36.454l8.203-27.339H34.048L45.441,40.885z"/>
</svg>
