<?xml version="1.0" encoding="utf-8"?>
<!-- Generator: Adobe Illustrator 15.1.0, SVG Export Plug-In . SVG Version: 6.00 Build 0)  -->
<!DOCTYPE svg PUBLIC "-//W3C//DTD SVG 1.1//EN" "http://www.w3.org/Graphics/SVG/1.1/DTD/svg11.dtd">
<svg version="1.1" id="Layer_1" xmlns="http://www.w3.org/2000/svg" xmlns:xlink="http://www.w3.org/1999/xlink" x="0px" y="0px"
	 width="100px" height="100px" viewBox="0 0 100 100" enable-background="new 0 0 100 100" xml:space="preserve">
<path fill="#FFFFFF" d="M97.205,54.29h-8.58c-2.37,0-4.291-1.922-4.291-4.29c0-2.369,1.921-4.292,4.291-4.292h8.58
	c2.37,0,4.292,1.923,4.292,4.292C101.497,52.368,99.58,54.29,97.205,54.29z M80.35,25.725c-1.677,1.676-4.398,1.676-6.069,0
	c-1.677-1.675-1.677-4.393,0-6.069l6.069-6.068c1.67-1.677,4.393-1.677,6.069,0c1.67,1.675,1.67,4.392,0,6.068L80.35,25.725z
	 M50.002,75.747C35.781,75.747,24.25,64.219,24.25,50c0-14.221,11.528-25.75,25.751-25.75C64.224,24.25,75.75,35.779,75.75,50
	C75.75,64.219,64.224,75.747,50.002,75.747z M50.002,32.834c-9.48,0-17.167,7.685-17.167,17.166c0,9.479,7.689,17.166,17.167,17.166
	S67.166,59.479,67.166,50C67.166,40.519,59.482,32.834,50.002,32.834z M50.002,15.668c-2.371,0-4.292-1.922-4.292-4.292V2.795
	c0-2.369,1.921-4.292,4.292-4.292c2.37,0,4.292,1.923,4.292,4.292v8.582C54.294,13.746,52.368,15.668,50.002,15.668z M19.656,25.725
	l-6.068-6.069c-1.677-1.676-1.677-4.393,0-6.068c1.675-1.677,4.392-1.677,6.068,0l6.069,6.068c1.676,1.676,1.676,4.394,0,6.069
	C24.049,27.4,21.332,27.4,19.656,25.725z M15.668,50c0,2.368-1.922,4.29-4.292,4.29H2.793c-2.369,0-4.29-1.922-4.29-4.29
	c0-2.369,1.923-4.292,4.29-4.292h8.584C13.748,45.708,15.668,47.631,15.668,50z M19.656,74.276c1.676-1.675,4.394-1.675,6.069,0
	c1.676,1.675,1.676,4.393,0,6.069l-6.069,6.066c-1.676,1.677-4.393,1.677-6.068,0c-1.677-1.674-1.677-4.393,0-6.066L19.656,74.276z
	 M50.002,84.331c2.37,0,4.292,1.92,4.292,4.29v8.584c0,2.37-1.922,4.292-4.292,4.292c-2.371,0-4.292-1.922-4.292-4.292v-8.584
	C45.71,86.251,47.631,84.331,50.002,84.331z M80.35,74.276l6.069,6.069c1.67,1.674,1.67,4.393,0,6.066
	c-1.677,1.677-4.399,1.677-6.069,0l-6.069-6.066c-1.677-1.677-1.677-4.395,0-6.069C75.951,72.6,78.669,72.6,80.35,74.276z"/>
</svg>
