<?xml version="1.0" encoding="utf-8"?>
<!-- Generator: Adobe Illustrator 15.1.0, SVG Export Plug-In . SVG Version: 6.00 Build 0)  -->
<!DOCTYPE svg PUBLIC "-//W3C//DTD SVG 1.1//EN" "http://www.w3.org/Graphics/SVG/1.1/DTD/svg11.dtd">
<svg version="1.1" id="Layer_1" xmlns="http://www.w3.org/2000/svg" xmlns:xlink="http://www.w3.org/1999/xlink" x="0px" y="0px"
	 width="100px" height="100px" viewBox="0 0 100 100" enable-background="new 0 0 100 100" xml:space="preserve">
<path fill="#FFFFFF" d="M50.001,97.642c-11.694,0-21.176-9.481-21.176-21.177c0-5.361,2.011-10.241,5.294-13.974v-44.25
	c0-8.77,7.11-15.882,15.882-15.882c8.768,0,15.877,7.112,15.877,15.882v44.25c3.288,3.732,5.294,8.612,5.294,13.974
	C71.173,88.16,61.696,97.642,50.001,97.642z M55.296,67.346V55.987V28.826V18.241c0-2.922-2.373-5.294-5.294-5.294
	c-2.925,0-5.294,2.372-5.294,5.294v10.585v27.161v11.358c-3.152,1.835-5.294,5.211-5.294,9.119c0,5.848,4.741,10.589,10.588,10.589
	S60.59,82.312,60.59,76.465C60.59,72.557,58.444,69.181,55.296,67.346z M50.001,84.406c-4.384,0-7.941-3.557-7.941-7.941
	c0-3.453,2.218-6.358,5.294-7.455V41.892h5.294V69.01c3.076,1.097,5.294,4.002,5.294,7.455
	C57.942,80.85,54.386,84.406,50.001,84.406z"/>
</svg>
