<?xml version="1.0" encoding="utf-8"?>
<!-- Generator: Adobe Illustrator 15.1.0, SVG Export Plug-In . SVG Version: 6.00 Build 0)  -->
<!DOCTYPE svg PUBLIC "-//W3C//DTD SVG 1.1//EN" "http://www.w3.org/Graphics/SVG/1.1/DTD/svg11.dtd">
<svg version="1.1" id="Layer_1" xmlns="http://www.w3.org/2000/svg" xmlns:xlink="http://www.w3.org/1999/xlink" x="0px" y="0px"
	 width="100px" height="100px" viewBox="0 0 100 100" enable-background="new 0 0 100 100" xml:space="preserve">
<path fill="#FFFFFF" d="M83.713,54.214L83.713,54.214h-6.322c-2.328,0-4.215-1.887-4.215-4.213s1.887-4.214,4.215-4.214h6.322
	c2.326,0,4.213-1.888,4.213-4.212c0-2.329-1.887-4.214-4.213-4.214c-2.329,0-4.216-1.889-4.216-4.215
	c0-2.325,1.887-4.214,4.216-4.214c0.29,0,0.569,0.03,0.845,0.086c6.575,0.445,11.792,5.865,11.792,12.557
	C96.35,48.553,90.693,54.214,83.713,54.214z M62.642,45.787h-4.216H43.681H16.292c-2.327,0-4.212,1.888-4.212,4.214
	s1.885,4.213,4.212,4.213h4.214h8.426h6.322h8.428h6.322h8.423h4.216c6.98,0,12.641,5.662,12.641,12.641
	c0,6.693-5.216,12.112-11.792,12.559c-0.274,0.055-0.555,0.085-0.849,0.085c-2.329,0-4.216-1.889-4.216-4.215
	c0-2.329,1.887-4.213,4.216-4.213c2.326,0,4.213-1.889,4.213-4.216c0-2.323-1.887-4.213-4.213-4.213h-4.216h-8.423h-6.322h-8.428
	h-6.322h-8.426h-4.214c-6.981,0-12.641-5.659-12.641-12.641c0-6.689,5.216-12.109,11.792-12.556c0.276-0.056,0.561-0.084,0.85-0.084
	l0,0h27.389h14.745h4.216c2.326,0,4.213-1.889,4.213-4.215c0-2.325-1.887-4.214-4.213-4.214c-2.329,0-4.216-1.886-4.216-4.214
	c0-2.326,1.887-4.214,4.216-4.214c0.294,0,0.574,0.032,0.849,0.086c6.576,0.445,11.792,5.865,11.792,12.556
	C75.282,40.125,69.622,45.787,62.642,45.787z"/>
</svg>
